<?xml version="1.0" encoding="UTF-8"?>
<svg xmlns="http://www.w3.org/2000/svg" viewBox="0 0 550 244.37">
  <defs>
    <style>
      .cls-1 {
        fill: #fff;
      }

      .cls-1, .cls-2, .cls-3, .cls-4, .cls-5, .cls-6, .cls-7 {
        stroke: #231f20;
        stroke-miterlimit: 10;
        stroke-width: 2px;
      }

      .cls-2 {
        fill: #bcbec0;
      }

      .cls-3, .cls-8 {
        fill: #be1e2d;
      }

      .cls-4 {
        fill: #f15a29;
      }

      .cls-5 {
        fill: none;
      }

      .cls-9 {
        fill: #231f20;
      }

      .cls-9, .cls-8 {
        stroke-width: 0px;
      }

      .cls-6 {
        fill: #ed1c24;
      }

      .cls-7 {
        fill: #a7a9ac;
      }
    </style>
  </defs>
  <g id="wheels">
    <circle class="cls-2" cx="117.77" cy="190.45" r="34"/>
    <circle class="cls-5" cx="117.77" cy="190.45" r="29"/>
    <path class="cls-9" d="m117.77,168.95c6.44-.9,13.09,2.5,17.22,7.4,9.46,10.55,5.99,27.7-6.44,34.23-5.91,3.18-13.28,3.6-19.41.81-7.92-3.43-14.23-12.1-12.86-20.93,1.97,14.66,17.24,25.1,31.01,17.77,8.9-4.63,13.33-16.18,9.28-25.47-3.16-7.52-10.74-12.9-18.79-13.8h0Z"/>
    <circle class="cls-5" cx="117.77" cy="190.45" r="13.5"/>
    <circle class="cls-5" cx="117.77" cy="190.45" r="3.5"/>
    <circle class="cls-2" cx="415.77" cy="190.45" r="34"/>
    <circle class="cls-5" cx="415.77" cy="190.45" r="29"/>
    <path class="cls-9" d="m415.77,168.95c6.44-.9,13.09,2.5,17.22,7.4,9.46,10.55,5.99,27.7-6.44,34.23-5.91,3.18-13.28,3.6-19.41.81-7.92-3.43-14.23-12.1-12.86-20.93,1.97,14.66,17.24,25.1,31.01,17.77,8.9-4.63,13.33-16.18,9.28-25.47-3.16-7.52-10.74-12.9-18.79-13.8h0Z"/>
    <circle class="cls-5" cx="415.77" cy="190.45" r="13.5"/>
    <circle class="cls-5" cx="415.77" cy="190.45" r="3.5"/>
  </g>
  <g id="car-outline">
    <g>
      <path class="cls-8" d="m78.02,207.84c.7-.14-.06-.49-.09-7.73-.01-3.87.08-8.18.1-8.77.01-.64.03-1.04.03-1.15.33-17.76,17.21-38,39.9-38s39.9,17.01,39.9,38c0,10-.72,18.7,5.03,18.7,43.93.04,198-.74,210.29-1.03.43-.01,3.96-3.46,3.96-8.95,0-4.64.08-8.16.09-8.47.2-7.08.72-16.68,9.53-26.84,3.81-4.39,15.41-11.22,29.25-11.42,21.65-.32,41.08,18.96,38.94,38-1.09,9.67.97,12.71,6,12.52,9.05-.35,13.59.01,20.56-1.9,6.39-1.75,9.59-2.63,13.55-4.87,2.92-1.65,9.13-10.72,14.53-16.64,1.23-1.35.88-4.5.9-6.76.05-4.34.05-6.55-.78-8.19-1.76-3.51-7.59-1.82-7.26-5.37.57-6.16.16-10.97,1.06-20.9.58-6.37-3.82-14.77-5.42-18.29-1.13-2.49-7.61-2.37-15.68-2.71-15.97-.68-23.43-1.85-24.58-2.23-24.58-8.03-43.76-21.82-76.26-27.87-61.84-11.52-121.66-3.36-141.48,3.43-7.42,2.54-25.98,11.08-48.97,24.57-11.87,6.97-17.27,9.74-22.06,10.32-17.13,2.06-20.65-.26-46.19,2.97-39.29,4.96-45.42,5.77-64.65,16-8,4.26-13.03,4.45-15.74,15.1-5.88,23.11-1.84,27.34-.97,34.34.56,4.47-.08,7.38.97,8.63,7.43,8.83,30.06,6.58,35.51,5.52Z"/>
      <path class="cls-9" d="m78.01,207.76c.22-.03.23-.16.23-.35,0-.19-.03-.39-.05-.58,0,0-.12-1.18-.12-1.18-.34-3.65-.19-8.14-.17-11.84-.05-3.1.11-6.39.74-9.44,2.62-12.44,11.61-23.19,22.98-28.68,10.05-4.83,22.11-4.83,32.38-.6,11.78,4.83,21.18,15.5,23.54,28.12,1.26,6.31.31,12.71.96,18.91.3,2.87,1.14,6.54,4.67,6.33,61.42-.45,137.37-.96,198.83-1.32,0,0,9.47-.06,9.47-.06,0,0,1.18,0,1.18,0h.3s.42-.02.07,0c1.32-1.2,2.78-3.79,3.1-5.96.28-1.24.21-3.29.23-4.57-.01-4.66,0-9.67.7-14.3,1.22-7.96,5.1-15.66,11.04-21.12,8.82-7.03,20.38-10.44,31.63-9.7,12.91,1.11,24.99,8.75,31.68,19.84,3.33,5.53,5.21,12.12,4.56,18.67-.29,4.26-1.56,12.2,4.83,11.78,0,0,2.36-.07,2.36-.07,6.28-.16,12.5-.08,18.55-1.89,4.52-1.25,9.05-2.37,13.04-4.75,3.47-2.78,6.23-6.93,9.15-10.39,1.66-2.13,3.49-4.15,5.22-6.23.73-1.6.44-3.44.47-5.36-.02-2.78.43-6.39-.95-8.71-1.55-2.16-7.33-1.32-7.07-5.27.42-4.92.35-9.83.63-14.78.07-3.07.73-6.28.38-9.29-.58-4.54-2.51-8.95-4.46-13.13-.15-.36-.6-1.26-.75-1.62-.08-.17-.13-.2-.19-.32-1.56-1.34-3.99-1.34-6.08-1.58-7.87-.44-15.77-.6-23.64-1.36-3.35-.38-6.77-.53-10.14-1.44-2.15-.73-6.19-2.19-8.38-3.05-17.56-7.04-34.27-16.19-52.55-21.31-9.06-2.7-18.39-4.27-27.71-5.71-15.52-2.24-31.44-3.49-47.09-3.71-18.89-.27-37.88.75-56.58,3.52-7.77,1.17-15.56,2.59-23.09,4.89-4.53,1.35-8.84,3.33-13.15,5.25-11.47,5.25-22.64,11.17-33.6,17.42-5.48,3.13-10.87,6.44-16.52,9.28-2.83,1.39-5.75,2.72-8.91,3.22-9.41,1.35-18.92.93-28.37,1.34-11.25.46-26.4,2.76-37.63,4.14-6.25.86-12.51,1.75-18.68,3.08-12.57,2.38-23.55,8.8-34.87,14.39-5.98,3-7.6,9.93-8.83,15.95-1.3,6.16-2.38,12.47-1.8,18.77.39,4.73,2.28,9.22,2.26,14,.06,1.39-.05,3.37.38,4.69,6.2,8.76,26.2,7.64,35.8,6.07h0Zm.03.15c-9.92,1.6-29.76,2.57-35.91-6.19-.51-1.29-.25-3.37-.38-4.72.03-4.78-1.86-9.27-2.23-14-.56-6.32.53-12.63,1.84-18.78,1.26-6.02,2.81-12.97,8.82-15.97,11.33-5.62,22.28-12.06,34.87-14.46,6.17-1.35,12.43-2.25,18.68-3.12,11.34-1.44,26.44-3.71,37.64-4.21,9.46-.43,18.95-.03,28.34-1.39,3.1-.5,6.01-1.83,8.82-3.22,5.63-2.85,11.01-6.15,16.48-9.31,10.94-6.31,22.08-12.29,33.54-17.6,4.31-1.95,8.64-3.96,13.19-5.34,7.55-2.34,15.36-3.81,23.16-5.02,18.73-2.87,37.76-3.98,56.69-3.8,15.69.14,31.69,1.32,47.25,3.5,9.39,1.4,18.79,2.94,27.91,5.61,18.34,5.03,35.18,14.13,52.77,21.09,0,0,4.41,1.65,4.41,1.65,0,0,2.23.76,2.23.76l1.11.38s.56.19.56.19c3.11.8,6.48.98,9.77,1.33,7.85.74,15.74.88,23.62,1.31,1.6.14,3.21.26,4.86.76,1.06.24,2.32.98,2.86,2.14,0,0,.25.53.25.53,0,0,.5,1.07.5,1.07,2.04,4.37,4,8.77,4.64,13.66.39,3.28-.28,6.37-.35,9.6-.17,3.14-.21,6.27-.3,9.45-.05,1.59-.13,3.18-.26,4.77-.08.89-.05,1.11.27,1.43.33.31,1.04.55,1.78.75.74.21,1.55.42,2.36.77,1.67.59,3.13,2.45,3.32,4.21.46,2.42.24,4.88.28,7.26,0,1.93.29,4.32-.7,6.3-.11.23-.31.47-.47.66-1.71,1.89-3.31,3.85-4.91,5.84-3.19,3.7-5.64,7.77-9.61,10.84-4.17,2.52-8.96,3.72-13.54,5-6.13,1.86-12.69,1.83-19,2,0,0-2.37.08-2.37.08-5.72.33-7.27-4.42-7.14-9.15-.01-1.63.17-3.26.31-4.82,1.54-18.91-16.44-34.99-34.44-36.5-10.68-.74-21.93,2.53-30.35,9.22-5.65,5.21-9.32,12.49-10.5,20.05-.68,4.42-.69,9.51-.71,14.05,0,0-.03,2.36-.03,2.36-.04,3.38-1.26,6.76-3.69,9.17-.22.17-.24.28-.78.53-.54.12-.32.03-.51.06h-.3s-1.18,0-1.18,0c0,0-9.47.03-9.47.03-61.49.23-137.42.47-198.87.62-4.02.17-5.23-3.78-5.5-7.12-.62-6.36.35-12.71-.86-18.86-2.27-12.41-11.46-22.92-23.02-27.72-10.11-4.22-22.03-4.27-31.97.45-11.3,5.39-20.26,16.02-22.91,28.34-.61,3.04-.82,6.3-.78,9.39-.02,3.68-.22,8.17.12,11.82,0,0,.11,1.18.11,1.18.02.31.1.61,0,.92-.07.13-.21.15-.3.18h0Z"/>
    </g>
    <path class="cls-6" d="m482.03,200.67c4.82-7.72,6.53-9.99,9.81-14.25,3.98-5.17,6.79-7.66,7.97-8.72.8-.71,1.27-1.13,1.99-1.68,2.39-1.81,6.99-4.58,8.23-3.44.75.7.2,2.79-.77,4.06-1.65,2.15-7.03,2.79-10.66,2.16"/>
    <path class="cls-7" d="m182.06,129.23c8-6.65,29.16-22.39,57.1-32.9,16.95-6.38,31.22-7.26,40.06-8.32,5.41-.65,27.9-1.87,67.16.77,28.71,1.94,37.55,5.52,47.88,9.1,15.82,5.47,37.48,16.33,40.38,20.32.82,1.13,2.87,3.75,1.35,4.06-7.74,1.61-42.45,1.35-97.55,2.13-42.32.59-90.94,3.74-103.16,4.26-36.58,1.55-56.81,3.56-53.23.58Z"/>
    <polygon class="cls-3" points="282.59 126.21 296.77 87.18 302.84 87.15 293.09 125.23 282.59 126.21"/>
    <polygon class="cls-3" points="303.38 125.23 308.19 87.51 302.84 87.15 293.09 125.23 303.38 125.23"/>
    <polygon class="cls-3" points="390.13 123.81 371.13 91.74 362.96 90.4 383.93 123.88 390.13 123.81"/>
    <path class="cls-1" d="m50.84,151.55c-3.74.24-3.82,6.95-2.65,8.06.83.79,1.07-.5,2.52.52,1.49,1.05-.09,2.73,1.68,3.42,2.97,1.16,8.26,1.16,13.03-.06,5.04-1.29,16.26-13.04,12.32-12.84-6.21.32-16,.19-26.9.9Z"/>
    <path class="cls-4" d="m477.51,131.73c-6.2.42,8.61,11.87,11.65,15.5.67.8,3.32,1.22,5.03.77,1.47-.39.54-1.57,1.55-2.45,1.15-1.01,3.21-1.21,4.39-.39,1.77,1.25,1.33.8,1.77.85.64.08,1.25-2.76,1.06-9.37-.03-1.01-.17-4.62-2.58-5.03-9.13-1.56-18.15-.21-22.87.11Z"/>
    <path class="cls-5" d="m183.33,128.2c-.9.72-1.68,1.6-2.31,2.56-3.62,5.54-5.24,10.41-6.05,13.75-1.3,5.34-1.14,11.73-.65,24.52.61,15.87,1.47,13.2,1.16,19.87-.33,7-.38,12.45,2.7,12.64,6.06.39,6.72.13,13.18.46,2.42.12-.49.48,27.34-.12,10.84-.23,9.46.08,30.9-.47,19.81-.5,28.17-.43,29.03-.48,6.25-.41,6.85,0,8.55-1.83,2.34-2.51,1-14.67-.22-31.37-.48-6.57-.75-14.39,1.16-24.26.44-2.25.51-2.14,4.52-16.65.13-.45,1.91-6.96,5.42-20,3.32-12.34,5.43-19.82,4.77-19.69-10.34,1.91-58.78-7.73-119.51,41.06Z"/>
    <path class="cls-5" d="m283.49,200.67c39.98,0,62.02.27,71.41-3.89,6.36-2.82,6.96-7.94,24.1-35.32,4.2-6.71,11.65-14.68,16.35-26.81.95-2.46-.19-4.84-.19-4.84-1.5-2.58-3.77-4.58-4.25-6"/>
  </g>
</svg>