<?xml version="1.0" standalone="no"?>
<!DOCTYPE svg PUBLIC "-//W3C//DTD SVG 20010904//EN"
 "http://www.w3.org/TR/2001/REC-SVG-20010904/DTD/svg10.dtd">
<svg version="1.0" xmlns="http://www.w3.org/2000/svg"
 width="814.000000pt" height="814.000000pt" viewBox="0 0 814.000000 814.000000"
 preserveAspectRatio="xMidYMid meet">

<g transform="translate(0.000000,814.000000) scale(0.100000,-0.100000)"
fill="#000000" stroke="none">
<path d="M3850 8130 c-14 -4 -85 -13 -159 -20 -1017 -86 -2002 -589 -2677
-1366 -464 -533 -773 -1154 -918 -1839 -118 -562 -118 -1108 0 -1670 146 -691
448 -1293 925 -1845 621 -717 1508 -1197 2474 -1339 404 -60 748 -58 1180 5
651 94 1305 369 1839 773 338 254 626 550 868 891 415 586 673 1284 728 1971
6 74 15 152 21 174 22 86 -2 507 -46 815 -171 1172 -881 2239 -1907 2861 -626
380 -1348 584 -2103 595 -110 2 -211 -1 -225 -6z m-164 -2537 c345 -461 632
-844 639 -852 14 -14 84 54 306 299 57 63 173 189 259 280 85 91 252 271 371
400 358 389 508 551 586 633 l74 77 209 0 c134 0 210 -4 210 -10 0 -10 -69
-86 -375 -415 -77 -82 -190 -204 -250 -270 -60 -66 -173 -187 -250 -270 -77
-82 -194 -208 -260 -280 -177 -194 -457 -495 -567 -613 -54 -57 -98 -107 -98
-112 0 -5 114 -161 253 -347 139 -186 475 -635 747 -998 271 -363 614 -822
762 -1019 148 -197 267 -365 264 -372 -7 -19 -1454 -21 -1478 -2 -8 7 -238
310 -509 673 -736 986 -870 1165 -873 1165 -4 0 -442 -471 -601 -645 -60 -66
-204 -221 -320 -345 -116 -124 -260 -279 -320 -345 -272 -298 -468 -505 -483
-509 -24 -7 -400 -1 -408 7 -4 3 20 35 52 70 204 223 395 430 575 622 114 122
260 279 325 350 65 72 231 252 369 400 138 149 321 347 407 440 85 94 165 179
176 189 12 11 22 25 22 32 0 13 -314 435 -1463 1969 -247 330 -452 608 -454
618 -5 16 35 17 736 17 l741 0 626 -837z"/>
<path d="M2233 6093 c-3 -6 182 -261 409 -565 228 -304 574 -767 769 -1028
196 -261 604 -808 909 -1215 304 -407 638 -854 742 -993 l189 -252 336 0 c314
0 335 1 331 18 -3 9 -147 206 -320 437 -173 231 -474 634 -669 895 -505 675
-1285 1718 -1682 2248 -186 249 -344 455 -351 458 -6 2 -157 5 -335 6 -243 2
-325 0 -328 -9z"/>
</g>
</svg>
